<svg width="710" height="187" viewBox="0 0 710 187" fill="none" xmlns="http://www.w3.org/2000/svg">
<path d="M0 21.5983H37.6236L64.7194 131.301L94.9534 21.5983H124.075L154.309 131.301L181.404 21.5983H219.028L175.803 178.273H135.041L109.508 85.7803L83.9876 178.273H43.2252L0 21.5983Z" fill="#2670FF"/>
<path d="M345.566 66.3818V178.272H311.981V167.748C304.591 176.248 293.613 181.397 278.608 181.397C249.262 181.397 225.08 155.662 225.08 122.302C225.08 88.9424 249.262 63.2821 278.608 63.2821C293.613 63.2821 304.591 68.4317 311.981 76.9434V66.4193L345.566 66.3818ZM311.981 122.352C311.981 105.554 300.728 95.0294 285.323 95.0294C269.918 95.0294 258.677 105.554 258.677 122.352C258.677 139.151 269.931 149.662 285.323 149.662C300.715 149.662 311.981 139.138 311.981 122.352Z" fill="#2670FF"/>
<path d="M710 66.3818V178.272H676.403V167.748C669.013 176.248 658.035 181.397 643.03 181.397C613.696 181.397 589.501 155.662 589.501 122.302C589.501 88.9424 613.696 63.2821 643.03 63.2821C658.035 63.2821 669.013 68.4317 676.403 76.9434V66.4193L710 66.3818ZM676.403 122.352C676.403 105.554 665.149 95.0294 649.744 95.0294C634.34 95.0294 623.099 105.554 623.099 122.352C623.099 139.151 634.29 149.662 649.744 149.662C665.199 149.662 676.403 139.138 676.403 122.352Z" fill="#2670FF"/>
<path d="M382.34 147.188L378.651 148.75C379.176 148.525 379.701 148.288 380.226 148.038C380.939 147.775 381.64 147.475 382.34 147.188Z" fill="#2670FF"/>
<path d="M403.358 134.226C402.333 135.026 401.295 135.839 400.245 136.626C400.758 136.226 401.258 135.839 401.745 135.376C402.233 134.914 402.833 134.639 403.358 134.226Z" fill="#2670FF"/>
<path d="M407.759 50.1582C407.672 50.8581 407.572 51.5831 407.522 52.2955C407.472 53.008 407.285 53.5454 407.197 54.2454C407.372 52.883 407.559 51.5081 407.759 50.1582Z" fill="#2670FF"/>
<path d="M407.859 65.7821C407.672 64.4072 407.484 63.0448 407.309 61.6699C407.397 62.3449 407.509 63.0198 407.634 63.6823C407.615 63.7518 407.615 63.8252 407.634 63.8947C407.697 64.5322 407.797 65.1446 407.859 65.7821Z" fill="#2670FF"/>
<path d="M410.56 41.7339C410.322 42.3088 410.085 42.8838 409.872 43.4837C409.66 44.0837 409.272 44.7336 409.01 45.3961C409.535 44.1837 410.035 42.9588 410.56 41.7339Z" fill="#2670FF"/>
<path d="M414.36 36.1595C413.96 36.6845 413.561 37.2219 413.198 37.7719C412.836 38.3219 412.348 38.7593 411.948 39.2718C412.773 38.2844 413.561 37.197 414.36 36.1595Z" fill="#2670FF"/>
<path d="M414.561 86.5928L412.998 82.9181C413.24 83.4764 413.49 84.0388 413.748 84.6054C414.011 85.2679 414.286 85.9428 414.561 86.5928Z" fill="#2670FF"/>
<path d="M418.088 33.0848C417.612 33.4598 417.15 33.8473 416.687 34.2597C416.125 34.6347 415.562 35.0347 415.024 35.5096L418.088 33.0848Z" fill="#2670FF"/>
<path d="M437.319 36.8843C436.881 36.3219 436.431 35.7969 435.981 35.272C435.23 34.447 434.443 33.6471 433.605 32.8847C432.861 32.393 432.089 31.9464 431.292 31.5473C430.419 31.253 429.53 31.0109 428.628 30.8223C427.379 30.7337 426.126 30.7337 424.877 30.8223H424.79C424.152 30.8223 423.539 30.9348 422.889 31.0098L426.803 30.4849L429.891 30.8973C429.771 30.8287 429.646 30.7702 429.516 30.7223L429.966 30.9223C430.204 30.9223 430.454 30.9223 430.704 31.0098C430.489 30.9704 430.272 30.9495 430.054 30.9473L432.429 31.9472C432.667 32.0347 432.892 32.1222 433.13 32.2347L432.517 31.9972L434.855 33.8096C435.756 34.872 436.518 35.8844 437.319 36.8843Z" fill="#2670FF"/>
<path d="M434.617 92.4298C434.217 93.3547 433.842 94.2796 433.467 95.1796C433.717 94.5671 433.967 93.9297 434.205 93.3547C434.355 93.0547 434.492 92.7423 434.617 92.4298Z" fill="#2670FF"/>
<path d="M439.556 41.9091C439.306 41.3341 439.056 40.7717 438.781 40.2092C438.506 39.6468 438.268 38.8968 438.006 38.2344C438.531 39.5343 439.056 40.6967 439.556 41.9091Z" fill="#2670FF"/>
<path d="M441.207 67.5319C441.082 68.6068 440.932 69.6692 440.795 70.7191C440.895 69.9816 440.982 69.2192 441.057 68.4568C441.12 68.1443 441.157 67.8443 441.207 67.5319Z" fill="#2670FF"/>
<path d="M441.507 51.1832C441.507 50.8957 441.42 50.6082 441.37 50.2958C441.37 50.2958 441.37 50.2083 441.37 50.1708C441.37 49.4333 441.207 48.7084 441.12 47.9709C441.244 49.0584 441.382 50.1208 441.507 51.1832Z" fill="#2670FF"/>
<path d="M587.413 158.274C585.303 154.878 582.027 152.368 578.198 151.212C575.147 150.3 572.159 149.25 569.196 148.075C561.672 144.744 554.542 140.585 547.939 135.676C546.489 134.551 545.076 133.38 543.7 132.164C545.851 129.247 547.91 126.269 549.877 123.227C553.699 117.334 557.128 111.197 560.143 104.854C564.222 96.6324 567.505 88.0398 569.946 79.1933C571.264 73.9775 572.167 68.6655 572.647 63.3071C573.034 59.392 573.034 55.4482 572.647 51.5331C572.236 46.7416 571.335 42.0048 569.958 37.3968C568.56 32.8606 566.638 28.5024 564.232 24.4104C562.618 21.8706 560.843 19.4366 558.918 17.1236C557.83 15.7589 556.643 14.4764 555.366 13.2864C553.235 11.321 550.957 9.52013 548.552 7.89933C547.133 6.91686 545.635 6.05157 544.076 5.31205C539.997 3.20205 535.627 1.71083 531.109 0.887429C528.166 0.355687 525.185 0.0589383 522.194 0C519.254 0.0835487 516.326 0.41385 513.441 0.987418C511.822 1.27856 510.235 1.72646 508.702 2.3248C505.998 3.29745 503.387 4.51054 500.9 5.9495C498.609 7.39682 496.439 9.02699 494.411 10.8241C493.303 11.7853 492.267 12.8254 491.31 13.9363C488.491 17.1078 486.092 20.628 484.17 24.4104C482.222 28.3098 480.664 32.3917 479.519 36.5969C478.46 40.8976 477.729 45.2722 477.331 49.6833C476.991 52.8126 476.857 55.9607 476.93 59.1075C477.133 66.8381 478.028 74.5349 479.606 82.1056C480.924 88.4421 482.777 94.6555 485.146 100.679C487.875 107.825 491.178 114.739 495.023 121.352C497.375 125.305 499.933 129.131 502.688 132.814C500.188 135.255 497.628 137.626 495.011 139.926C493.044 141.642 491.039 143.309 488.996 144.925C484.41 148.373 479.639 151.57 474.705 154.499C469.713 151.528 464.888 148.286 460.25 144.788C455.524 141.057 451.007 137.068 446.722 132.839C447.609 131.651 448.472 130.451 449.322 129.239C453.027 123.965 456.301 118.402 459.113 112.603C462.51 105.712 465.329 98.5501 467.54 91.1923C469.65 83.718 471.098 76.0724 471.866 68.3442C472.639 62.0846 472.706 55.7579 472.066 49.4833C471.651 45.0281 470.895 40.6113 469.803 36.2719C468.636 32.0769 467.057 28.0075 465.089 24.123C463.156 20.3868 460.752 16.9132 457.937 13.7863C456.96 12.6532 455.894 11.6 454.749 10.6366C452.697 8.85383 450.511 7.23246 448.209 5.78701C445.741 4.39036 443.155 3.21102 440.482 2.26231C438.905 1.67089 437.277 1.22735 435.618 0.937421C432.729 0.403699 429.802 0.0986128 426.865 0.0249985C423.929 0.10482 421.003 0.409856 418.113 0.937421C413.551 1.80228 409.143 3.33977 405.034 5.49954C403.535 6.24653 402.093 7.10294 400.72 8.06182C398.289 9.73406 395.982 11.5804 393.818 13.5864C392.57 14.7979 391.401 16.0879 390.317 17.4485C388.427 19.7379 386.694 22.1514 385.128 24.6729C384.188 26.2064 383.353 27.8016 382.627 29.4475C381.381 32.169 380.283 34.9563 379.339 37.7968C377.984 42.4401 377.112 47.2108 376.738 52.0331C376.39 55.8718 376.411 59.735 376.8 63.5696C377.298 68.9323 378.214 74.2479 379.539 79.4683C380.637 83.5713 381.973 87.607 383.54 91.5548C386.598 99.4253 390.178 107.083 394.256 114.478C397.708 120.586 401.533 126.476 405.709 132.114C404.459 133.264 403.108 134.364 401.745 135.439C402.295 135.039 402.833 134.639 403.358 134.189C402.333 134.989 401.295 135.801 400.245 136.588C400.758 136.188 401.258 135.801 401.745 135.339C395.073 140.34 387.854 144.567 380.226 147.937C380.927 147.675 381.639 147.375 382.34 147.088L378.651 148.65C379.176 148.425 379.701 148.187 380.226 147.937C377.263 149.112 374.275 150.162 371.211 151.075C367.371 152.202 364.09 154.72 362.009 158.137C360.898 159.852 360.268 161.833 360.183 163.874C359.728 165.904 359.827 168.019 360.47 169.998C361.549 173.868 364.086 177.169 367.548 179.21C371.146 181.264 375.408 181.821 379.414 180.76C386.81 178.516 393.994 175.626 400.883 172.123C406.598 169.225 412.057 165.847 417.2 162.024C420.113 159.849 422.952 157.624 425.728 155.299C429.366 158.837 433.155 162.224 437.106 165.399C443.514 170.656 450.256 175.495 457.287 179.885C460.188 181.66 463.139 183.36 466.14 184.884C467.854 185.989 469.829 186.622 471.866 186.722C472.982 186.966 474.128 187.05 475.267 186.972H475.405C478.138 186.976 480.823 186.251 483.182 184.872C489.422 181.552 495.441 177.832 501.2 173.735C507.93 168.969 514.357 163.788 520.444 158.224C521.494 157.249 522.544 156.249 523.57 155.237C528.84 159.754 534.445 163.865 540.337 167.536C546.956 171.508 553.905 174.903 561.106 177.685C564.015 178.827 566.966 179.843 569.958 180.735C571.949 181.368 574.071 181.463 576.11 181.01C578.143 180.915 580.113 180.285 581.824 179.185C583.575 178.246 585.062 176.884 586.151 175.223C587.501 173.737 588.448 171.929 588.902 169.973C589.077 168.623 589.277 167.248 589.452 165.886C589.443 163.215 588.741 160.592 587.413 158.274V158.274ZM441.207 67.5318C441.082 68.6067 440.932 69.6691 440.795 70.719C440.895 69.9816 440.982 69.2192 441.057 68.4567C439.749 76.994 437.45 85.3497 434.205 93.3546C434.355 93.0546 434.493 92.7422 434.618 92.4297C434.218 93.3546 433.843 94.2795 433.467 95.1795C433.717 94.567 433.968 93.9296 434.205 93.3546C431.951 98.4305 429.344 103.342 426.403 108.053C422.914 102.713 419.745 97.1704 416.912 91.4548C415.812 89.1925 414.737 86.9177 413.749 84.6054C414.012 85.2678 414.287 85.9427 414.562 86.5927L412.999 82.918C413.24 83.4763 413.491 84.0387 413.749 84.6054C410.964 77.9455 408.918 71.0004 407.647 63.8946C407.647 64.532 407.797 65.1445 407.86 65.7819C407.672 64.4071 407.485 63.0447 407.31 61.6698C407.397 62.3447 407.51 63.0197 407.635 63.6821C407.222 59.8996 407.184 56.0855 407.522 52.2956C407.397 52.9455 407.285 53.5455 407.197 54.2454C407.372 52.883 407.56 51.5081 407.76 50.1583C407.672 50.8582 407.572 51.5831 407.522 52.2956C408.026 49.3113 408.813 46.3816 409.873 43.5463C409.56 44.1838 409.273 44.7962 409.01 45.4587C409.535 44.2088 410.035 42.9589 410.56 41.7965C410.323 42.3714 410.085 42.9464 409.873 43.5463C410.815 41.5504 411.928 39.6393 413.199 37.8343C412.774 38.3218 412.349 38.8217 411.948 39.3342C412.774 38.2968 413.561 37.2594 414.362 36.2219C413.962 36.7469 413.561 37.2843 413.199 37.8343C414.255 36.5907 415.405 35.4291 416.637 34.3596C416.075 34.7346 415.512 35.1345 414.974 35.6095L418.088 33.1972C417.613 33.5722 417.15 33.9596 416.687 34.3721C417.928 33.544 419.223 32.8007 420.563 32.1473L419.588 32.4973C420.226 32.2223 420.838 31.9473 421.464 31.6973C421.201 31.8473 420.926 31.9723 420.651 32.1098C422.013 31.631 423.404 31.2386 424.815 30.9349C424.177 30.9349 423.565 31.0474 422.914 31.1224L426.828 30.5974L429.916 31.0099C429.796 30.9413 429.671 30.8828 429.541 30.8349L429.991 31.0349C430.229 31.0349 430.479 31.0349 430.729 31.1224C430.515 31.083 430.297 31.0621 430.079 31.0599L432.455 32.0598C432.692 32.1473 432.917 32.2348 433.155 32.3473L432.542 32.1098L434.88 33.9221C435.655 34.9346 436.418 35.947 437.219 36.9469C436.781 36.3844 436.331 35.8595 435.881 35.3345C436.94 36.9276 437.876 38.5989 438.681 40.3341C438.444 39.6716 438.169 39.0217 437.906 38.3593C438.431 39.6092 438.957 40.859 439.457 42.0339C439.207 41.459 438.956 40.8965 438.681 40.3341C439.835 43.5789 440.673 46.9275 441.182 50.3332C441.182 49.5958 441.02 48.8709 440.932 48.1334C441.082 49.2208 441.22 50.2832 441.345 51.3457C441.345 51.0582 441.257 50.7707 441.207 50.4582C441.735 56.5063 441.63 62.5929 440.895 68.6192C441.12 68.1442 441.157 67.8443 441.207 67.5318ZM541.787 63.6821C541.806 63.7517 541.806 63.8251 541.787 63.8946C540.517 71.0642 538.449 78.0695 535.623 84.7803C532.074 92.8745 527.871 100.666 523.057 108.078C520.107 103.361 517.495 98.4411 515.242 93.3546C511.993 85.3502 509.69 76.9945 508.377 68.4567C507.64 62.4304 507.539 56.3432 508.077 50.2958C508.077 50.2958 508.077 50.2083 508.077 50.1708C508.611 46.7625 509.474 43.4139 510.653 40.1716C511.444 38.4289 512.381 36.7564 513.454 35.172C514.192 34.3471 514.992 33.5472 515.817 32.7847C516.564 32.2983 517.336 31.8519 518.13 31.4473C519.004 31.1562 519.893 30.9141 520.794 30.7224C522.043 30.6337 523.296 30.6337 524.545 30.7224V30.7224C525.964 31.026 527.363 31.4184 528.733 31.8973C528.762 31.8904 528.792 31.8904 528.821 31.8973C530.223 32.5804 531.573 33.3658 532.86 34.2471C534.049 35.2941 535.16 36.4262 536.186 37.6343C537.449 39.4283 538.558 41.3267 539.499 43.3088C540.562 46.1803 541.361 49.1422 541.887 52.1581C542.225 55.9937 542.192 59.853 541.787 63.6821V63.6821Z" fill="#2670FF"/>
</svg>
